<svg xmlns="http://www.w3.org/2000/svg" xmlns:xlink="http://www.w3.org/1999/xlink" width="20px" height="20px" viewBox="0 0 20 20" class="svg-icon white" transform="scale(1.8)">
<g id="surface1">
<path style=" stroke:none;fill-rule:nonzero;fill:white;fill-opacity:1;" d="M 6.859375 6.15625 C 8.128906 7.109375 9.496094 9.046875 10 10.085938 C 10.503906 9.046875 11.871094 7.109375 13.140625 6.15625 C 14.058594 5.464844 15.546875 4.933594 15.546875 6.628906 C 15.546875 6.96875 15.351562 9.476562 15.238281 9.882812 C 14.84375 11.296875 13.398438 11.65625 12.117188 11.4375 C 14.359375 11.820312 14.929688 13.085938 13.699219 14.351562 C 11.355469 16.753906 10.332031 13.75 10.070312 12.976562 C 10.023438 12.835938 10 12.769531 10 12.828125 C 10 12.769531 9.976562 12.835938 9.929688 12.976562 C 9.667969 13.75 8.644531 16.753906 6.300781 14.351562 C 5.070312 13.085938 5.640625 11.820312 7.882812 11.4375 C 6.601562 11.65625 5.15625 11.296875 4.761719 9.882812 C 4.648438 9.476562 4.453125 6.96875 4.453125 6.628906 C 4.453125 4.933594 5.941406 5.464844 6.859375 6.15625 Z M 6.859375 6.15625 "/>
</g>
</svg>
