<svg xmlns="http://www.w3.org/2000/svg" xmlns:xlink="http://www.w3.org/1999/xlink" width="16px" height="17px" viewBox="0 0 16 17" class="svg-icon white">
<g id="surface1">
<path style=" stroke:none;fill-rule:nonzero;fill:rgb(100%,100%,100%);fill-opacity:1;" d="M 15.933594 3.863281 C 15.6875 2.070312 14.09375 0.65625 12.199219 0.382812 C 11.878906 0.335938 10.671875 0.167969 7.867188 0.167969 L 7.847656 0.167969 C 5.042969 0.167969 4.441406 0.335938 4.125 0.382812 C 2.285156 0.648438 0.601562 1.917969 0.195312 3.734375 C 0 4.628906 -0.0234375 5.621094 0.015625 6.53125 C 0.0664062 7.832031 0.078125 9.136719 0.199219 10.433594 C 0.28125 11.296875 0.425781 12.152344 0.632812 12.996094 C 1.023438 14.550781 2.589844 15.847656 4.128906 16.375 C 5.773438 16.925781 7.542969 17.015625 9.238281 16.640625 C 9.425781 16.597656 9.609375 16.546875 9.789062 16.492188 C 10.203125 16.363281 10.683594 16.21875 11.039062 15.96875 C 11.046875 15.964844 11.050781 15.960938 11.050781 15.953125 C 11.054688 15.949219 11.054688 15.941406 11.054688 15.9375 L 11.054688 14.679688 C 11.054688 14.671875 11.054688 14.667969 11.050781 14.664062 C 11.050781 14.65625 11.046875 14.652344 11.042969 14.648438 C 11.039062 14.644531 11.03125 14.644531 11.027344 14.640625 C 11.019531 14.640625 11.015625 14.640625 11.011719 14.644531 C 9.921875 14.898438 8.8125 15.023438 7.695312 15.023438 C 5.773438 15.023438 5.253906 14.128906 5.105469 13.757812 C 4.988281 13.433594 4.914062 13.101562 4.882812 12.757812 C 4.882812 12.753906 4.882812 12.746094 4.886719 12.742188 C 4.886719 12.738281 4.890625 12.734375 4.894531 12.730469 C 4.898438 12.726562 4.90625 12.722656 4.910156 12.722656 C 4.917969 12.71875 4.921875 12.722656 4.929688 12.722656 C 5.996094 12.972656 7.089844 13.101562 8.191406 13.101562 C 8.453125 13.101562 8.71875 13.101562 8.984375 13.09375 C 10.085938 13.066406 11.253906 13.007812 12.339844 12.800781 C 12.367188 12.796875 12.394531 12.792969 12.417969 12.785156 C 14.132812 12.460938 15.765625 11.449219 15.929688 8.886719 C 15.9375 8.785156 15.953125 7.828125 15.953125 7.722656 C 15.953125 7.367188 16.070312 5.199219 15.933594 3.863281 Z M 13.296875 10.261719 L 11.492188 10.261719 L 11.492188 5.9375 C 11.492188 5.023438 11.105469 4.5625 10.316406 4.5625 C 9.449219 4.5625 9.015625 5.109375 9.015625 6.195312 L 9.015625 8.5625 L 7.222656 8.5625 L 7.222656 6.195312 C 7.222656 5.109375 6.789062 4.5625 5.921875 4.5625 C 5.136719 4.5625 4.746094 5.023438 4.746094 5.9375 L 4.746094 10.261719 L 2.945312 10.261719 L 2.945312 5.804688 C 2.945312 4.894531 3.183594 4.171875 3.65625 3.632812 C 4.144531 3.097656 4.789062 2.824219 5.585938 2.824219 C 6.507812 2.824219 7.207031 3.171875 7.671875 3.867188 L 8.121094 4.605469 L 8.570312 3.867188 C 9.035156 3.171875 9.734375 2.824219 10.65625 2.824219 C 11.449219 2.824219 12.09375 3.097656 12.585938 3.632812 C 13.058594 4.167969 13.296875 4.894531 13.296875 5.804688 Z M 13.296875 10.261719 "/>
</g>
</svg>